<svg width="36" height="36" viewBox="0 0 36 36" fill="none" xmlns="http://www.w3.org/2000/svg">
<rect width="36" height="36" rx="18" fill="black"/>
<path d="M13.8243 10.4599C14.5171 10.4599 15.1565 10.5132 15.7427 10.673C16.3288 10.7796 16.8084 10.9928 17.2347 11.2592C17.661 11.5256 17.9807 11.8986 18.1939 12.3782C18.407 12.8578 18.5136 13.444 18.5136 14.0834C18.5136 14.8294 18.3537 15.4689 17.9807 15.9484C17.661 16.428 17.1281 16.8543 16.4887 17.174C17.3946 17.4405 18.0873 17.9201 18.5136 18.5595C18.9399 19.1989 19.2063 19.9983 19.2063 20.9041C19.2063 21.6501 19.0464 22.2896 18.78 22.8225C18.5136 23.3553 18.0873 23.8349 17.6077 24.1546C17.1281 24.4744 16.542 24.7408 15.9025 24.9006C15.2631 25.0605 14.6236 25.1671 13.9842 25.1671H6.84375V10.4599H13.8243ZM13.398 16.428C13.9842 16.428 14.4638 16.2682 14.8368 16.0017C15.2098 15.7353 15.3696 15.2557 15.3696 14.6696C15.3696 14.3498 15.3164 14.0301 15.2098 13.817C15.1032 13.6038 14.9434 13.444 14.7302 13.2841C14.5171 13.1775 14.3039 13.071 14.0375 13.0177C13.771 12.9644 13.5046 12.9644 13.1849 12.9644H10.0942V16.428H13.398ZM13.5579 22.7159C13.8776 22.7159 14.1973 22.6626 14.4638 22.6093C14.7302 22.556 14.9966 22.4494 15.2098 22.2896C15.4229 22.1297 15.5828 21.9699 15.7427 21.7034C15.8492 21.437 15.9558 21.1173 15.9558 20.7443C15.9558 19.9983 15.7427 19.4654 15.3164 19.0924C14.8901 18.7727 14.3039 18.6128 13.6112 18.6128H10.0942V22.7159H13.5579ZM23.8423 22.6626C24.2686 23.0889 24.908 23.302 25.7606 23.302C26.3467 23.302 26.8796 23.1422 27.3059 22.8757C27.7322 22.556 27.9986 22.2363 28.1052 21.9166H30.7163C30.29 23.1955 29.6505 24.1013 28.7979 24.6875C27.9454 25.2204 26.9329 25.5401 25.7073 25.5401C24.8547 25.5401 24.1087 25.3802 23.416 25.1138C22.7232 24.8474 22.1904 24.4743 21.7108 23.9415C21.2312 23.4619 20.8582 22.8757 20.6451 22.183C20.3786 21.4903 20.272 20.7443 20.272 19.8917C20.272 19.0924 20.3786 18.3464 20.6451 17.6536C20.9115 16.9609 21.2845 16.3747 21.7641 15.8419C22.2437 15.3623 22.8298 14.936 23.4693 14.6696C24.162 14.4031 24.8547 14.2433 25.7073 14.2433C26.6132 14.2433 27.4125 14.4031 28.1052 14.7761C28.7979 15.1491 29.3308 15.5754 29.7571 16.2149C30.1834 16.801 30.5031 17.4938 30.7163 18.2398C30.8228 18.9858 30.8761 19.7318 30.8228 20.5844H23.0962C23.0962 21.437 23.416 22.2363 23.8423 22.6626ZM27.1993 17.0675C26.8263 16.6945 26.2402 16.4813 25.5474 16.4813C25.0679 16.4813 24.6949 16.5879 24.3751 16.7478C24.0554 16.9076 23.8423 17.1208 23.6291 17.3339C23.416 17.5471 23.3094 17.8135 23.2561 18.0799C23.2028 18.3464 23.1495 18.5595 23.1495 18.7727H27.9454C27.8388 17.9734 27.5723 17.4405 27.1993 17.0675ZM22.5101 11.4724H28.4782V12.9111H22.5101V11.4724Z" fill="white"/>
</svg>
