<svg width="36" height="36" viewBox="0 0 36 36" fill="none" xmlns="http://www.w3.org/2000/svg">
<rect width="36" height="36" rx="18" fill="black"/>
<path d="M18 29.9859C11.3813 29.9859 6 24.6141 6 18.0047C6 11.3859 11.3813 6.01407 18 6.01407C24.6187 6.01407 30 11.3859 30 17.9953C30 24.6047 24.6187 29.9859 18 29.9859ZM28.1156 19.6359C27.7687 19.5234 24.9469 18.6891 21.7313 19.1953C23.0719 22.8703 23.6156 25.8703 23.7188 26.4891C26.025 24.9422 27.6656 22.4859 28.1156 19.6359ZM22.0031 27.4359C21.8531 26.5359 21.2531 23.4047 19.8187 19.6734C19.8 19.6828 19.7719 19.6922 19.7531 19.6922C13.9687 21.7078 11.8969 25.7109 11.7094 26.0859C13.4438 27.4359 15.6281 28.2422 18 28.2422C19.4156 28.2516 20.775 27.9609 22.0031 27.4359ZM10.3875 24.8578C10.6219 24.4641 13.4344 19.8141 18.7219 18.0984C18.8531 18.0516 18.9937 18.0141 19.125 17.9766C18.8719 17.3953 18.5906 16.8141 18.2906 16.2422C13.1719 17.7703 8.20312 17.7047 7.75313 17.6953C7.75313 17.7984 7.74375 17.9016 7.74375 18.0047C7.75313 20.6391 8.74687 23.0391 10.3875 24.8578ZM7.96875 15.9141C8.42812 15.9234 12.6469 15.9422 17.4469 14.6672C15.75 11.6484 13.9125 9.11719 13.65 8.75157C10.7719 10.1016 8.63438 12.7453 7.96875 15.9141ZM15.6 8.05782C15.8813 8.43282 17.7469 10.9641 19.425 14.0484C23.0719 12.6797 24.6094 10.6172 24.7969 10.3547C22.9875 8.75157 20.6062 7.77657 18 7.77657C17.175 7.77657 16.3688 7.87969 15.6 8.05782ZM25.9313 11.5359C25.7156 11.8266 24 14.0297 20.2125 15.5766C20.4469 16.0641 20.6812 16.5609 20.8969 17.0578C20.9719 17.2359 21.0469 17.4141 21.1219 17.5828C24.5344 17.1516 27.9187 17.8453 28.2562 17.9109C28.2281 15.5016 27.3656 13.2797 25.9313 11.5359Z" fill="white"/>
</svg>
