<svg width="36" height="36" viewBox="0 0 36 36" fill="none" xmlns="http://www.w3.org/2000/svg">
<rect width="36" height="36" rx="18" fill="black"/>
<path d="M27.9938 26.4938C26.8125 26.4657 25.6594 26.4657 24.4782 26.4938C24.225 26.4938 24.1688 26.4375 24.1688 26.1844C24.1688 24.1032 24.1688 21.9938 24.1688 19.9125C24.1688 19.4344 24.1407 18.9563 24 18.5063C23.5782 17.0438 21.8907 16.5094 20.6813 17.4938C20.0344 18 19.7813 18.7032 19.7813 19.5469C19.7813 21.5157 19.7813 23.4844 19.7813 25.4532C19.7813 25.7063 19.7531 25.9594 19.7813 26.2407C19.8094 26.4657 19.6969 26.5219 19.5 26.4938C18.2906 26.4938 17.1094 26.4938 15.9 26.4938C15.675 26.4938 15.6188 26.4375 15.6188 26.2125C15.6469 24.4407 15.6469 22.6688 15.6469 20.8688C15.6469 18.675 15.6469 16.4813 15.6188 14.3157C15.6188 14.0625 15.675 14.0063 15.9 14.0063C17.1094 14.0063 18.2906 14.0063 19.5 14.0063C19.725 14.0063 19.7813 14.0625 19.7813 14.2875C19.7813 14.7375 19.7813 15.1875 19.7813 15.7219C19.8656 15.6375 19.8938 15.6094 19.9219 15.5813C21.0188 13.9782 22.5656 13.5282 24.3938 13.8094C26.5032 14.1469 27.8532 15.6094 28.1907 17.8594C28.275 18.3938 28.3032 18.9282 28.3032 19.4625C28.3032 21.7125 28.3032 23.9344 28.3032 26.1844C28.3032 26.4094 28.2469 26.4938 27.9938 26.4938Z" fill="white"/>
<path d="M13.3688 20.25C13.3688 22.2188 13.3688 24.1875 13.3688 26.1563C13.3688 26.4094 13.3125 26.4938 13.0594 26.4938C11.8781 26.4656 10.6969 26.4938 9.51562 26.4938C9.29063 26.4938 9.23438 26.4375 9.23438 26.2125C9.23438 22.2469 9.23438 18.2531 9.23438 14.2875C9.23438 14.0906 9.29063 14.0063 9.51562 14.0063C10.725 14.0063 11.9344 14.0063 13.1438 14.0063C13.3969 14.0063 13.425 14.0906 13.425 14.3156C13.3688 16.2844 13.3688 18.2531 13.3688 20.25Z" fill="white"/>
<path d="M13.5656 10.7438C13.2844 11.8688 12.1313 12.5156 10.8094 12.2906C9.40315 12.0656 8.61565 10.6875 9.1219 9.33751C9.4594 8.49377 10.275 7.98752 11.3156 8.01564C12.8906 7.98752 13.9313 9.25314 13.5656 10.7438Z" fill="white"/>
</svg>
